<?xml version="1.0" encoding="utf-8"?>
<!-- Generator: Adobe Illustrator 22.0.1, SVG Export Plug-In . SVG Version: 6.00 Build 0)  -->
<svg version="1.1" id="Layer_1" xmlns="http://www.w3.org/2000/svg" xmlns:xlink="http://www.w3.org/1999/xlink" x="0px" y="0px"
	 viewBox="0 0 50.5 48.5" style="enable-background:new 0 0 50.5 48.5;" xml:space="preserve">
<style type="text/css">
	.st0{clip-path:url(#SVGID_2_);fill:#6B6D6F;}
	.st1{fill:none;stroke:#6B6D6F;stroke-width:2;stroke-miterlimit:10;}
	.st2{fill:none;stroke:#6B6D6F;stroke-width:3;stroke-miterlimit:10;}
</style>
<g>
	<defs>
		<path id="SVGID_1_" d="M41.1,45.6V32.1H42v12.7h6.5v0.9H41.1z M29.3,45.6V32.1h0.9v12.7h6.5v0.9H29.3z M17.3,40h4.9l-1.8-4.9
			c-0.2-0.4-0.3-0.9-0.6-1.6c-0.2,0.6-0.3,1.1-0.5,1.6L17.3,40z M22.5,40.8h-5.5L15,45.6h-1L19.5,32h0.6l5.3,13.6h-1.1L22.5,40.8z"
			/>
	</defs>
	<clipPath id="SVGID_2_">
		<use xlink:href="#SVGID_1_"  style="overflow:visible;"/>
	</clipPath>
	<rect x="9" y="27" class="st0" width="44.5" height="23.6"/>
</g>
<path class="st1" d="M41.1,45.6V32.1H42v12.7h6.5v0.9H41.1z M29.3,45.6V32.1h0.9v12.7h6.5v0.9H29.3z M17.3,40h4.9l-1.8-4.9
	c-0.2-0.4-0.3-0.9-0.6-1.6c-0.2,0.6-0.3,1.1-0.5,1.6L17.3,40z M22.5,40.8h-5.5L15,45.6h-1L19.5,32h0.6l5.3,13.6h-1.1L22.5,40.8z"/>
<polyline class="st2" points="3,7 19.5,7 48,7 "/>
<rect x="19" y="3" class="st2" width="12.5" height="4"/>
<polyline class="st2" points="6,13 6,46 12,46 "/>
<line class="st2" x1="43.5" y1="27" x2="43.5" y2="13"/>
<line class="st2" x1="20" y1="21" x2="20" y2="26"/>
<line class="st2" x1="26" y1="21" x2="26" y2="26"/>
<line class="st2" x1="32" y1="21" x2="32" y2="26"/>
</svg>
